<?xml version="1.0" encoding="UTF-8"?>
<svg width="1049px" height="1049px" viewBox="0 0 1049 1049" version="1.1" xmlns="http://www.w3.org/2000/svg" xmlns:xlink="http://www.w3.org/1999/xlink">
    <!-- Generator: Sketch 43.2 (39069) - http://www.bohemiancoding.com/sketch -->
    <title>train_aka</title>
    <desc>Created with Sketch.</desc>
    <defs></defs>
    <g id="Page-1" stroke="none" stroke-width="1" fill="none" fill-rule="evenodd">
        <g id="train_aka" fill="#000000">
            <path d="M536.590695,65.6568287 C546.246123,83.1435185 560.859744,99.8472222 579.648685,113.418981 C598.176669,126.990741 620.879973,137.16956 646.714767,141.345486 C659.501686,143.433449 667.069454,143.95544 674.115307,142.128472 C682.20499,140.040509 686.38031,134.559606 686.38031,125.946759 C686.38031,121.770833 683.770735,116.550926 677.246797,112.635995 C672.288604,109.765046 664.981794,109.765046 653.76062,108.98206 C610.180715,106.633102 572.86379,90.4513889 548.855698,56 L536.590695,65.6568287 Z M332,80.0115741 C338.26298,96.9762731 346.352664,110.287037 359.661497,118.377894 C369.83884,124.641782 378.711396,126.207755 395.151719,123.336806 C390.193527,136.125579 385.757249,148.392361 381.842886,160.398148 C373.492245,184.409722 366.968307,209.465278 361.227242,237.652778 C355.486177,266.101273 350.527984,298.203704 348.701281,319.866319 C346.613621,341.789931 345.830748,361.103588 345.830748,379.373264 L345.830748,407.038773 C345.830748,424.786458 350.788941,443.056134 358.095752,450.364005 C364.61969,456.888889 372.448415,455.322917 376.362778,450.364005 C380.799056,444.361111 381.842886,433.921296 380.016183,420.610532 C373.492245,368.411458 372.97033,326.130208 377.928523,286.197917 C381.842886,255.661458 387.062036,229.561921 393.585974,206.594329 C400.109912,183.887731 408.460553,164.313079 418.115981,146.304398 C423.596089,136.125579 427.771409,129.86169 431.94673,124.380787 C439.514498,114.723958 441.602158,107.155093 435.07822,100.891204 C431.163857,96.9762731 428.293324,94.6273148 423.335131,91.7563657 C416.289278,87.8414352 410.026298,90.4513889 400.37087,95.4103009 C391.759272,99.8472222 381.060013,99.8472222 370.88267,96.9762731 C359.139582,93.8443287 348.962239,83.1435185 342.699258,70.3547454 L332,80.0115741 Z M602.873904,238.174769 C634.188806,238.174769 663.416049,245.743634 684.553608,260.62037 C705.430209,275.497106 719,298.464699 719,329.001157 C719,360.320602 705.952124,392.162037 674.637222,422.4375 C643.061362,452.712963 593.218476,481.683449 519.106541,507 L508.407283,491.601273 C575.473365,466.545718 619.314228,439.402199 646.45381,411.214699 C673.332434,383.288194 683.509777,355.100694 683.509777,327.957176 C683.509777,279.673032 654.80445,256.70544 599.742414,255.922454 C597.654754,274.975116 590.608901,294.810764 583.041133,309.426505 C577.821982,319.605324 570.776129,329.262153 562.947404,337.614005 C555.118678,346.226852 546.246123,353.534722 538.678355,358.493634 C523.020904,368.672454 513.88739,369.194444 506.841537,368.150463 C500.839514,367.106481 495.359407,362.147569 492.227916,353.795718 C490.662171,349.358796 488.835469,344.66088 487.008766,340.223958 C482.833446,331.08912 479.701955,323.78125 476.831423,318.561343 C475.265678,316.212384 473.438975,313.602431 471.351315,310.992477 C466.915037,305.511574 465.088334,298.725694 465.088334,292.722801 C465.088334,286.719907 469.263655,278.368056 480.484828,270.79919 C509.973028,250.963542 549.377613,238.174769 602.873904,238.174769 Z M579.387728,256.966435 C557.467296,259.837384 536.329737,267.40625 520.672286,276.802083 C504.753877,286.197917 494.576534,296.898727 494.576534,305.511574 C494.576534,311.775463 496.403237,320.127315 500.578557,326.652199 C504.49292,333.177083 510.494943,338.135995 519.106541,338.135995 C524.586649,338.135995 532.415374,333.699074 539.983142,326.913194 C547.55091,320.127315 555.640593,310.992477 561.903574,301.335648 C570.254214,288.024884 576.256237,272.626157 579.387728,256.966435 Z" id="ğ›€„"></path>
            <path d="M340.140372,641.279685 L350.317337,631.097529 C352.404919,636.058067 355.014397,639.452119 358.406719,642.846171 C361.538092,646.240222 365.974205,649.634274 372.236953,654.07265 C378.238752,658.249944 384.240552,660.338592 394.678464,659.294268 C404.855429,658.511025 418.685663,655.378054 440.605279,649.112112 C459.393521,643.890494 477.39892,635.274824 490.185363,629.008882 C494.621476,612.299704 496.709058,595.068363 496.709058,582.275398 C496.709058,570.004596 487.053989,568.177029 473.223755,569.482434 C466.70006,570.265676 462.002999,571.571081 453.913617,576.009457 L447.128974,565.827301 C453.391722,560.866764 458.871626,556.95055 470.092382,553.034336 C483.922615,548.073799 496.709058,548.073799 507.407918,550.945689 C523.325735,555.122983 534.024595,564.260815 534.024595,574.965133 C534.024595,579.92567 533.241752,586.191612 531.415117,592.457554 C530.371326,596.373768 529.588482,600.028901 528.805639,603.684033 C528.022795,607.339166 527.239952,611.25538 526.196161,615.432675 C541.070186,607.339166 552.55189,601.595386 568.208758,597.418091 C578.385723,594.546201 586.736053,592.718635 594.564487,591.41323 C602.392921,590.368907 609.960408,589.846745 619.093581,589.846745 C635.011398,589.846745 653.277744,593.501878 665.020396,601.073224 C681.721056,611.516461 684.85243,620.915374 684.85243,632.141853 C684.85243,649.112112 667.629874,664.515886 639.44751,672.609395 C620.659268,678.092094 606.307139,679.658579 590.65027,678.614256 C573.688662,677.569932 559.858428,672.609395 550.725255,666.343453 L553.334733,655.639135 C567.164967,660.599673 577.863827,661.905077 591.172166,661.905077 C604.741452,661.905077 617.527894,660.077511 630.314337,654.07265 C644.144571,647.545627 650.146371,641.801847 650.146371,630.053206 C650.146371,612.299704 639.44751,604.206195 613.091782,604.206195 C596.391122,604.206195 577.863827,607.339166 561.946011,613.866189 C547.332933,619.87105 531.415117,627.181316 522.803839,633.186177 C519.15057,642.58509 515.236353,652.506164 511.322136,662.949401 C503.232753,684.096955 495.143371,704.983428 487.575885,723.520173 C483.661668,732.919086 480.269346,741.012594 476.877025,748.061779 C472.70186,757.199611 474.789442,759.81042 483.922615,760.854744 C497.230954,762.68231 514.453509,767.381767 527.239952,774.430951 C541.853029,782.52446 554.378524,795.578505 564.555489,814.376331 C575.254349,834.218481 577.863827,852.755225 577.863827,877.03575 C577.863827,894.789253 574.732454,912.020593 569.513497,927.424367 C564.033593,943.089222 556.205159,956.143267 547.593881,965.281099 C526.979004,986.428653 508.973605,994 488.09778,994 C475.833233,994 466.178164,986.950815 457.566887,979.64055 C450.260348,973.374608 441.127175,961.625967 432.776845,949.355164 C424.426515,937.084361 416.859028,924.552477 412.683863,916.458969 C400.941212,925.074639 381.892022,941.522736 361.016197,961.364886 C352.404919,969.458394 346.403119,974.418931 341.184163,977.290821 C335.965207,980.423792 331.529094,981.207035 326.310138,981.207035 C316.133173,981.207035 307,968.936232 307,945.961112 C307,916.458969 315.872226,891.917363 330.485303,874.947103 C346.142172,856.93252 358.928614,852.494145 369.627475,852.494145 C375.629274,852.494145 380.326335,853.016306 385.023395,855.366035 C389.720456,857.715763 394.417516,862.154138 400.419316,869.464404 C406.943011,877.557912 411.118176,883.823854 415.554289,890.350877 C438.517696,870.508728 461.481104,852.494145 487.575885,834.740642 L493.055789,847.011445 C467.743851,865.809271 444.780444,883.301692 424.687463,905.232489 C435.908218,926.118962 450.782244,941.522736 470.614277,957.187591 C477.920816,962.67029 484.183563,966.325423 490.968206,966.325423 C497.752849,966.586504 504.79844,963.714614 513.931614,956.665429 C523.325735,949.355164 530.371326,937.084361 535.329334,922.985991 C540.287343,908.887622 542.635873,892.961686 542.635873,878.080074 C542.635873,849.883335 539.243551,831.08551 532.980804,817.509302 C526.718056,803.933095 517.584883,795.578505 506.886023,788.26824 C498.796641,782.78554 489.663467,780.957974 478.442711,779.130408 L471.397121,778.347165 C469.04859,778.086084 466.961008,777.825003 465.134373,777.563922 C455.479304,775.736356 452.34793,769.731495 452.34793,762.68231 L452.34793,755.894206 C452.34793,754.06664 453.130774,751.455831 454.435513,748.061779 C461.481104,730.308277 468.004799,710.988289 473.484703,693.234787 C478.964607,675.742366 483.139772,659.81643 486.010198,648.589951 C479.486503,651.984003 472.440912,655.378054 464.612478,659.294268 C456.784043,663.210482 448.433713,667.648857 439.561488,672.087233 C426.775045,678.614256 414.510498,684.619117 402.767846,687.752088 C390.503299,690.885059 383.457708,691.407221 375.890222,689.318573 C367.80084,686.968845 363.886623,684.096955 357.884823,676.525608 C348.75165,664.776967 343.271746,653.028326 340.140372,641.279685 Z M607.872825,789.834725 L599.783443,779.65257 C603.958608,775.475275 606.829034,772.864466 609.960408,770.514738 C611.265147,769.209333 612.830834,768.165009 614.396521,766.859605 L619.615477,763.204472 C637.359928,750.672588 649.102579,746.495293 660.845231,746.495293 C676.5021,746.495293 684.330534,751.455831 685.374325,764.248796 C686.418116,777.04176 679.372525,795.056343 671.022196,812.809846 C663.454709,828.4747 654.843431,847.011445 647.536893,868.942242 C642.578884,883.301692 643.10078,889.045473 652.755849,895.572495 C657.974805,899.488709 665.020396,901.316275 671.022196,903.143842 C681.460108,906.015732 697.638872,907.060056 710.425315,906.276813 C720.080384,905.49357 725.560288,905.754651 732.866827,910.193027 C738.346731,913.325998 742,920.375182 742,924.552477 C742,932.123823 736.781044,935.778956 731.823035,937.867603 C727.64787,939.69517 721.646071,940.478413 713.556689,940.478413 C707.554889,940.478413 696.073185,939.173008 687.461908,937.345442 C678.328734,936.040037 667.629874,932.645985 657.452909,928.468691 C647.014997,924.291396 637.359928,919.069778 631.880024,913.848159 C623.790642,906.276813 620.920216,893.483848 626.139172,873.641699 C630.053389,859.021167 634.75045,843.356313 641.013197,822.469839 C646.493101,804.716337 649.102579,792.967696 649.102579,779.65257 C649.102579,768.42609 643.361728,766.859605 628.74865,774.953113 C619.615477,779.91365 612.830834,784.874188 607.872825,789.834725 Z M400.419316,902.62168 C395.20036,891.395201 387.110978,879.385479 375.890222,871.030889 C367.539892,864.764948 356.841032,865.287109 347.707858,882.779531 C344.837433,888.001149 341.706059,896.355738 339.357528,905.232489 C337.008998,914.10924 335.182364,923.508153 335.182364,930.035176 C335.182364,938.389765 335.965207,944.133545 338.835633,945.961112 C340.140372,947.005435 342.227954,947.005435 345.09838,945.700031 C347.707858,944.394626 351.10018,942.044898 355.536293,938.389765 C362.059988,932.907066 371.193161,925.33572 379.804439,918.547616 C388.154769,911.759512 395.983203,905.754651 400.419316,902.62168 Z" id="ğ›€¢"></path>
        </g>
    </g>
</svg>