<?xml version="1.0" encoding="UTF-8"?>
<svg width="1049px" height="1049px" viewBox="0 0 1049 1049" version="1.1" xmlns="http://www.w3.org/2000/svg" xmlns:xlink="http://www.w3.org/1999/xlink">
    <!-- Generator: Sketch 43.2 (39069) - http://www.bohemiancoding.com/sketch -->
    <title>train_katsu</title>
    <desc>Created with Sketch.</desc>
    <defs></defs>
    <g id="Page-1" stroke="none" stroke-width="1" fill="none" fill-rule="evenodd">
        <g id="train_katsu" fill="#000000">
            <g id="Group" transform="translate(306.000000, 105.000000)">
                <path d="M44,600.942413 C44,611.691956 45.5653822,627.368373 47.5780164,641.925046 C49.3670246,656.481718 52.274163,670.590494 54.9576753,677.980804 C59.4301958,690.521938 65.6917246,697.912249 71.0587492,702.167276 C76.2021478,706.422303 82.0164245,707.318099 88.0543272,707.318099 C94.315856,707.318099 98.7883765,702.615174 100.353759,689.850091 C101.024637,684.251371 103.260897,678.8766 106.838913,673.949726 C113.77132,664.319927 118.914719,658.497258 125.399874,652.226691 C131.661402,646.180073 139.264687,639.909506 145.749842,634.534735 C152.234997,629.383912 162.074542,623.113346 168.783323,622.441499 C172.137713,622.21755 174.821226,623.561243 176.83386,626.920475 C181.530006,634.310786 187.120657,642.820841 192.487682,649.987203 C197.854706,657.153565 202.774479,663.424132 206.576121,667.007313 C213.508528,673.277879 219.546431,678.428702 226.702464,678.428702 C232.740366,678.428702 239.672773,677.085009 246.828806,667.007313 C262.92988,644.612431 281.267214,630.727605 296.473784,621.545704 C308.325963,614.155393 320.625395,608.108775 334.042956,608.108775 C343.882502,608.108775 352.156665,611.244059 358.418193,619.082267 C364.456096,626.920475 367.810486,639.23766 367.810486,657.377514 C367.810486,675.06947 362.667088,695.000914 353.722047,714.260512 C344.777006,733.52011 332.030322,751.883912 316.152874,765.992687 C301.840809,778.533821 287.975995,789.731261 272.993051,800.032907 C258.010107,810.334552 242.13266,820.1883 223.571699,829.370201 L230.951358,839 C266.955148,823.771481 303.853443,803.616088 337.173721,775.622486 C351.26216,763.977148 366.46873,747.852834 378.097284,727.921389 C389.725837,707.989945 398,683.803473 398,656.25777 C398,635.654479 389.725837,618.634369 377.873658,608.108775 C366.46873,598.031079 352.827543,594 334.937461,594 C331.135818,594 327.334176,594.447898 323.085281,595.343693 C314.587492,597.359232 305.866077,600.718464 297.81554,604.525594 C289.541377,608.332724 283.503474,611.691956 276.571068,616.394881 C269.638661,621.097806 262.92988,626.696527 256.221099,632.071298 C252.866709,634.758684 249.512318,637.222121 246.381554,639.461609 C239.225521,644.612431 234.529375,646.85192 230.951358,646.85192 C227.149716,647.075868 224.242577,645.284278 220.888187,642.596892 C214.403032,637.446069 205.234365,628.040219 197.854706,619.306216 C189.133291,608.780622 180.411876,607.21298 175.044852,607.21298 C172.361339,607.21298 169.901453,607.436929 167.888819,607.660878 C163.416298,608.556673 159.167404,609.900366 154.024005,612.587751 C151.564119,614.155393 148.433354,615.723035 144.855338,617.738574 C137.699305,621.993601 128.97789,627.816271 120.480101,634.534735 C111.982312,641.253199 103.484523,648.64351 97.2229943,654.914077 C93.8686039,658.273309 91.1850916,660.736746 88.9488313,662.304388 C84.4763108,665.66362 81.5691725,665.887569 79.1092862,663.872029 C76.4257738,662.080439 73.9658876,658.721207 71.9532533,654.466179 C69.9406191,650.211152 67.9279848,645.508227 66.1389766,640.805302 C65.2444725,638.341865 64.3499684,636.326325 63.6790903,634.310786 C58.5356917,620.649909 56.2994315,606.765082 54.5104232,597.583181 L44,600.942413 Z" id="ğ›ª"></path>
                <path d="M33.3689262,92.9017953 L43.6160768,82.6509959 C45.7180564,87.6449751 48.3455309,91.0619082 51.7612478,94.4788414 C54.9142172,97.8957745 59.3809238,101.312708 65.6868626,105.781005 C71.730054,109.986461 77.7732454,112.089189 88.2831434,111.037825 C98.5302939,110.249302 112.455909,107.09521 134.526695,100.787026 C153.444511,95.5302054 171.574085,86.8564521 184.44871,80.5482678 C188.915417,63.7264432 191.017397,46.3789365 191.017397,33.499727 C191.017397,21.1461995 181.295741,19.3063125 167.370126,20.6205175 C160.80144,21.4090405 156.071986,22.7232456 147.926815,27.1915428 L141.095381,16.9407434 C147.40132,11.9467642 152.919016,8.00414902 164.217157,4.06153387 C178.142771,-0.932445325 191.017397,-0.932445325 201.790042,1.95880579 C217.817636,6.16426195 228.590282,15.3636973 228.590282,26.1401787 C228.590282,31.1341579 227.80204,37.4423422 225.962807,43.7505264 C224.911818,47.6931416 224.123575,51.3729157 223.335333,55.0526898 C222.547091,58.732464 221.758848,62.6750791 220.707858,66.8805353 C235.684463,58.732464 247.245351,52.9499618 263.010198,48.7445056 C273.257349,45.8532545 281.665267,44.0133674 289.54769,42.6991624 C297.430114,41.6477983 305.04979,41.1221163 314.245951,41.1221163 C330.273545,41.1221163 348.665867,44.8018904 360.489502,52.4242797 C377.305339,62.9379201 380.458308,72.4001965 380.458308,83.7023599 C380.458308,100.787026 363.116977,116.294645 334.740252,124.442717 C315.822436,129.962378 301.371326,131.539424 285.606479,130.48806 C268.527894,129.436696 254.60228,124.442717 245.406119,118.134532 L248.033593,107.358051 C261.959208,112.35203 272.731854,113.666235 286.131974,113.666235 C299.794841,113.666235 312.669466,111.826348 325.544091,105.781005 C339.469706,99.2099795 345.512897,93.4274773 345.512897,81.5996319 C345.512897,63.7264432 334.740252,55.5783719 308.202759,55.5783719 C291.386923,55.5783719 272.731854,58.732464 256.704259,65.3034892 C241.990402,71.3488325 225.962807,78.7083807 217.292142,84.753724 C213.613677,94.2160003 209.672466,104.203959 205.731254,114.717599 C197.586083,136.007721 189.440912,157.035002 181.821236,175.696713 C177.880024,185.15899 174.464307,193.307061 171.04859,200.403768 C166.844631,209.603204 168.946611,212.231614 178.142771,213.282978 C191.542891,215.122865 208.884223,219.854003 221.758848,226.95071 C236.472705,235.098782 249.084583,248.240832 259.331734,267.165385 C270.104379,287.141302 272.731854,305.803014 272.731854,330.247227 C272.731854,348.120416 269.578884,365.467923 264.323935,380.975542 C258.806239,396.746003 250.923815,409.888054 242.253149,419.087489 C221.496101,440.377611 203.366527,448 182.346731,448 C169.9976,448 160.275945,440.903293 151.605279,433.543744 C144.24835,427.23556 135.05219,415.407715 126.644271,403.054187 C118.236353,390.70066 110.616677,378.084291 106.412717,369.93622 C94.5890822,378.609973 75.4085183,395.168957 54.3887223,415.144874 C45.7180564,423.292945 39.674865,428.286924 34.419916,431.178175 C29.164967,434.332267 24.6982603,435.120791 19.4433113,435.120791 C9.19616077,435.120791 0,422.767263 0,399.637254 C0,369.93622 8.93341332,345.229165 23.6472705,328.144499 C39.4121176,310.00847 52.2867427,305.540173 63.0593881,305.540173 C69.1025795,305.540173 73.8320336,306.065855 78.5614877,308.431424 C83.2909418,310.796993 88.0203959,315.26529 94.0635873,322.624838 C100.632274,330.772909 104.836233,337.081094 109.302939,343.652119 C132.424715,323.676202 155.546491,305.540173 181.821236,287.666984 L187.338932,300.020511 C161.85243,318.945064 138.730654,336.555412 118.4991,358.634057 C129.797241,379.661337 144.773845,395.168957 164.742651,410.939418 C172.09958,416.459079 178.405519,420.138853 185.236953,420.138853 C192.068386,420.401694 199.162567,417.510443 208.358728,410.413736 C217.817636,403.054187 224.911818,390.70066 229.904019,376.507245 C234.896221,362.313831 237.260948,346.280529 237.260948,331.298591 C237.260948,302.911762 233.845231,283.98721 227.539292,270.319477 C221.233353,256.651745 212.037193,248.240832 201.264547,240.881284 C193.119376,235.361623 183.923215,233.521736 172.625075,231.681849 L165.530894,230.893326 C163.166167,230.630485 161.064187,230.367644 159.224955,230.104803 C149.503299,228.264916 146.35033,222.219572 146.35033,215.122865 L146.35033,208.288999 C146.35033,206.449112 147.138572,203.820702 148.45231,200.403768 C155.546491,182.53058 162.115177,163.080345 167.632873,145.207156 C173.15057,127.596809 177.354529,111.563507 180.244751,100.261344 C173.676065,103.678277 166.581884,107.09521 158.69946,111.037825 C150.817037,114.98044 142.409118,119.448737 133.475705,123.917034 C120.60108,130.48806 108.25195,136.533403 96.4283143,139.687495 C84.0791842,142.841587 76.985003,143.367269 69.3653269,141.264541 C61.220156,138.898972 57.2789442,136.007721 51.2357528,128.385332 C42.0395921,116.557486 36.5218956,104.729641 33.3689262,92.9017953 Z M302.94781,242.45833 L294.802639,232.207531 C299.006599,228.002075 301.896821,225.373664 305.04979,223.008095 C306.363527,221.69389 307.940012,220.642526 309.516497,219.328321 L314.771446,215.648547 C332.638272,203.032179 344.461908,198.826722 356.285543,198.826722 C372.05039,198.826722 379.932813,203.820702 380.983803,216.699911 C382.034793,229.579121 374.940612,247.71515 366.532693,265.588339 C358.913017,281.3588 350.242352,300.020511 342.885423,322.099156 C337.893221,336.555412 338.418716,342.337914 348.140372,348.908939 C353.395321,352.851554 360.489502,354.691441 366.532693,356.531328 C377.042591,359.42258 393.332933,360.473944 406.207558,359.685421 C415.929214,358.896898 421.446911,359.159739 428.803839,363.628036 C434.321536,366.782128 438,373.878835 438,378.084291 C438,385.706681 432.745051,389.386455 427.752849,391.489183 C423.54889,393.32907 417.505699,394.117593 409.360528,394.117593 C403.317337,394.117593 391.756449,392.803388 383.085783,390.963501 C373.889622,389.649296 363.116977,386.232363 352.869826,382.026906 C342.359928,377.82145 332.638272,372.56463 327.120576,367.30781 C318.975405,359.685421 316.085183,346.806211 321.340132,326.830294 C325.281344,312.111198 330.010798,296.340737 336.316737,275.313456 C341.834433,257.440268 344.461908,245.612422 344.461908,232.207531 C344.461908,220.905367 338.681464,219.328321 323.967606,227.476392 C314.771446,232.470372 307.940012,237.464351 302.94781,242.45833 Z M94.0635873,356.005646 C88.8086383,344.703483 80.6634673,332.612797 69.3653269,324.201884 C60.9574085,317.8937 50.184763,318.419382 40.9886023,336.02973 C38.0983803,341.28655 34.9454109,349.697462 32.5806839,358.634057 C30.2159568,367.570651 28.3767247,377.032927 28.3767247,383.603953 C28.3767247,392.014865 29.164967,397.797367 32.055189,399.637254 C33.3689262,400.688618 35.4709058,400.688618 38.3611278,399.374413 C40.9886023,398.060208 44.4043191,395.694639 48.8710258,392.014865 C55.4397121,386.495204 64.6358728,378.872814 73.3065387,372.038948 C81.7144571,365.205082 89.5968806,359.159739 94.0635873,356.005646 Z" id="ğ›€¢"></path>
            </g>
        </g>
    </g>
</svg>